<svg width="285" height="150" viewBox="0 0 285 150" fill="none" xmlns="http://www.w3.org/2000/svg">
<path d="M140.39 20.25C130.29 20.11 120.47 20.33 111 20.89V0H107.08V21.14C44.9096 25.36 -0.760408 43.75 0.00959239 66.44C0.769592 88.74 46.1496 108.1 107.08 114.37V130.63H111V114.75C120.56 115.65 130.48 116.21 140.65 116.42V149.46H143.89V116.48C222.23 117.5 284.93 96.83 284.03 70.29C283.13 43.7 218.83 21.31 140.39 20.25ZM107.08 57.54C106.4 58.75 105.55 59.87 104.57 60.84C103.59 61.82 102.48 62.67 101.26 63.35H43.7196V67.27H101.26C103.69 68.63 105.7 70.65 107.07 73.08V93.9H88.3296V97.14H107.08V110.28C62.4696 103.67 29.9696 86.52 29.2896 66.83C28.6096 46.74 61.3696 30.16 107.08 25.12V57.54ZM110.99 73.09C111.67 71.88 112.52 70.76 113.5 69.79C114.48 68.81 115.59 67.96 116.8 67.28H140.64V89.1C140.08 90.09 139.39 91.02 138.58 91.83C137.77 92.64 136.84 93.33 135.85 93.89H110.99V73.09ZM110.99 110.82V97.14H135.85C137.85 98.26 139.51 99.94 140.64 101.93V113.1C130.38 112.85 120.44 112.08 110.99 110.82ZM143.89 113.15V101.93C144.45 100.94 145.14 100.01 145.95 99.2C146.76 98.39 147.69 97.7 148.68 97.14H196.2V93.9H148.68C147.69 93.34 146.76 92.65 145.95 91.84C145.14 91.03 144.45 90.1 143.89 89.11V67.28H174.35V63.36H143.89V41.58H140.65V63.36H116.81C115.6 62.68 114.48 61.83 113.51 60.85C112.53 59.87 111.68 58.76 111 57.55V24.72C120.38 23.83 130.27 23.43 140.5 23.57C202.76 24.41 253.91 45.15 254.76 69.89C255.59 94.58 205.98 113.92 143.89 113.15Z" fill="#80CC03"/>
</svg>
