<svg width="176" height="130" viewBox="0 0 176 130" fill="none" xmlns="http://www.w3.org/2000/svg">
<g id="Frame" clip-path="url(#clip0_23_102)">
<g id="Group">
<path id="Vector" d="M108.804 111.677C155.345 89.0632 183.762 50.2752 172.274 25.0419C160.787 -0.191266 113.745 -2.31435 67.2036 20.2999C20.6623 42.9142 -7.75432 81.7022 3.73332 106.935C15.221 132.169 62.2627 134.292 108.804 111.677Z" stroke="#00C2FF" stroke-width="3" stroke-miterlimit="10"/>
<path id="Vector_2" d="M109.67 11.9529C112.63 11.9529 115.029 9.27715 115.029 5.97645C115.029 2.67575 112.63 0 109.67 0C106.71 0 104.311 2.67575 104.311 5.97645C104.311 9.27715 106.71 11.9529 109.67 11.9529Z" fill="#00C2FF"/>
<path id="Vector_3" d="M74.7947 129.153C77.7546 129.153 80.154 126.477 80.154 123.177C80.154 119.876 77.7546 117.2 74.7947 117.2C71.8348 117.2 69.4353 119.876 69.4353 123.177C69.4353 126.477 71.8348 129.153 74.7947 129.153Z" fill="#00C2FF"/>
<path id="Vector_4" d="M42.5912 38.9446C44.5369 38.9446 46.1142 37.1875 46.1142 35.02C46.1142 32.8526 44.5369 31.0955 42.5912 31.0955C40.6455 31.0955 39.0682 32.8526 39.0682 35.02C39.0682 37.1875 40.6455 38.9446 42.5912 38.9446Z" fill="#00C2FF"/>
<path id="Vector_5" d="M64.3913 130C66.337 130 67.9143 128.243 67.9143 126.075C67.9143 123.908 66.337 122.151 64.3913 122.151C62.4456 122.151 60.8683 123.908 60.8683 126.075C60.8683 128.243 62.4456 130 64.3913 130Z" fill="#00C2FF"/>
</g>
</g>
<defs>
<clipPath id="clip0_23_102">
<rect width="176" height="130" fill="white"/>
</clipPath>
</defs>
</svg>
