<svg width="246" height="119" viewBox="0 0 246 119" fill="none" xmlns="http://www.w3.org/2000/svg">
<g id="Frame" clip-path="url(#clip0_23_85)">
<g id="Group">
<path id="Vector" d="M244.559 59.5C244.559 59.6388 244.559 59.7677 244.549 59.9066C244.299 78.1037 226.474 94.3075 198.78 104.859C189.343 108.459 178.763 111.394 167.338 113.536C153.596 116.104 138.654 117.512 123 117.512C106.722 117.512 91.1738 115.985 76.9903 113.209C65.6224 110.997 55.1194 107.983 45.7887 104.313C18.7095 93.6629 1.44141 77.5483 1.44141 59.5C1.44141 27.4592 55.8593 1.48749 123 1.48749C190.141 1.48749 244.559 27.4592 244.559 59.5Z" stroke="#00C2FF" stroke-width="3" stroke-miterlimit="10"/>
<path id="Vector_2" d="M123 117.512C163.759 117.512 196.8 91.5394 196.8 59.5C196.8 27.4606 163.759 1.48749 123 1.48749C82.2413 1.48749 49.2 27.4606 49.2 59.5C49.2 91.5394 82.2413 117.512 123 117.512Z" stroke="#00C2FF" stroke-width="3" stroke-miterlimit="10"/>
<path id="Vector_3" d="M123 117.512C143.979 117.512 160.986 91.5394 160.986 59.5C160.986 27.4606 143.979 1.48749 123 1.48749C102.021 1.48749 85.0142 27.4606 85.0142 59.5C85.0142 91.5394 102.021 117.512 123 117.512Z" stroke="#00C2FF" stroke-width="3" stroke-miterlimit="10"/>
<path id="Vector_4" d="M123 91.392C190.13 91.392 244.549 77.1135 244.549 59.5C244.549 41.8865 190.13 27.608 123 27.608C55.8704 27.608 1.45105 41.8865 1.45105 59.5C1.45105 77.1135 55.8704 91.392 123 91.392Z" stroke="#00C2FF" stroke-width="3" stroke-miterlimit="10"/>
<path id="Vector_5" d="M1.44141 59.9066C82.4773 59.9066 163.523 59.9066 244.559 59.9066H1.44141Z" stroke="#00C2FF" stroke-width="3" stroke-miterlimit="10"/>
</g>
</g>
<defs>
<clipPath id="clip0_23_85">
<rect width="246" height="119" fill="white"/>
</clipPath>
</defs>
</svg>
