<svg width="163" height="211" viewBox="0 0 163 211" fill="none" xmlns="http://www.w3.org/2000/svg">
<path d="M127.707 124.653C101.288 124.653 93.6659 108.392 109.486 80.0497L115.336 68.4895L131.392 67.6178L116.218 66.7461L128.557 42.3629L113.769 66.5994L103.084 65.9884C81.9016 65.9884 75.7911 52.9537 88.4767 30.2243L103.769 0L85.327 30.2243C72.6413 52.9537 51.9789 65.9884 30.7968 65.9884L0.677198 67.6178L28.9857 69.2471C50.1678 69.2471 56.2783 82.2818 43.5927 105.011L33.5371 124.873L0 126.681L31.7023 128.506L28.3006 135.236L32.3874 128.539L35.3009 128.71C61.7195 128.71 69.3419 144.971 53.5223 173.313L34.4426 211L57.4358 173.313C73.2555 144.971 99.0205 128.71 125.439 128.71L163 126.681L127.707 124.653ZM105.564 80.0497C89.7445 108.392 63.9795 124.653 37.5609 124.653L34.6631 124.808L46.7424 105.011C59.4281 82.2818 80.0826 69.2471 101.265 69.2471L112.517 68.6361L105.564 80.0497Z" fill="white"/>
</svg>
