<svg width="248" height="121" viewBox="0 0 248 121" fill="none" xmlns="http://www.w3.org/2000/svg">
<path d="M245.669 60.6269C245.669 60.7668 245.669 60.8966 245.66 61.0364C245.409 79.364 227.512 95.684 199.707 106.311C190.233 109.937 179.61 112.893 168.139 115.05C154.342 117.637 139.34 119.055 123.624 119.055C107.28 119.055 91.6699 117.517 77.4297 114.721C66.0162 112.493 55.4711 109.457 46.103 105.762C18.9153 95.0348 1.57812 78.8047 1.57812 60.6269C1.57812 28.3565 56.214 2.19852 123.624 2.19852C191.033 2.19852 245.669 28.3565 245.669 60.6269Z" stroke="white" stroke-width="3" stroke-miterlimit="10"/>
<path d="M123.624 119.055C164.546 119.055 197.719 92.8961 197.719 60.6269C197.719 28.3578 164.546 2.19852 123.624 2.19852C82.7018 2.19852 49.5281 28.3578 49.5281 60.6269C49.5281 92.8961 82.7018 119.055 123.624 119.055Z" stroke="white" stroke-width="3" stroke-miterlimit="10"/>
<path d="M123.624 119.055C144.687 119.055 161.762 92.8961 161.762 60.6269C161.762 28.3578 144.687 2.19852 123.624 2.19852C102.561 2.19852 85.4857 28.3578 85.4857 60.6269C85.4857 92.8961 102.561 119.055 123.624 119.055Z" stroke="white" stroke-width="3" stroke-miterlimit="10"/>
<path d="M1.57812 61.0364C82.9386 61.0364 164.309 61.0364 245.669 61.0364H1.57812Z" stroke="white" stroke-width="3" stroke-miterlimit="10"/>
<path d="M168.139 115.05C154.342 117.637 139.34 119.055 123.624 119.055C107.28 119.055 91.6699 117.517 77.4297 114.721C79.7741 113.233 82.379 111.864 85.2348 110.616C89.5378 108.758 94.381 107.2 99.6198 106.041C106.653 104.473 114.4 103.614 122.533 103.614C131.381 103.614 139.784 104.633 147.28 106.461C152.268 107.679 156.87 109.247 160.942 111.115C163.556 112.314 165.968 113.632 168.139 115.05Z" stroke="white" stroke-width="3" stroke-miterlimit="10"/>
<path d="M199.707 106.311C190.233 109.937 179.61 112.893 168.139 115.05C154.342 117.637 139.34 119.055 123.624 119.055C107.28 119.055 91.6699 117.517 77.4297 114.721C66.0162 112.493 55.4711 109.457 46.103 105.762C51.1778 101.936 57.3042 98.5205 64.2796 95.6341C71.9207 92.448 80.5749 89.8711 89.9429 88.0634H89.9526C100.083 86.0958 111.062 85.0271 122.533 85.0271C134.786 85.0271 146.46 86.2556 157.16 88.4629C166.383 90.3805 174.854 93.0373 182.321 96.2933C188.998 99.1797 194.854 102.556 199.707 106.311Z" stroke="white" stroke-width="3" stroke-miterlimit="10"/>
<path d="M168.139 6.20361C154.342 3.61678 139.34 2.19852 123.624 2.19852C107.28 2.19852 91.6699 3.73663 77.4297 6.53321C79.7741 8.02138 82.379 9.38971 85.2348 10.6382C89.5378 12.4959 94.381 14.054 99.6198 15.2126C106.653 16.7807 114.4 17.6396 122.533 17.6396C131.381 17.6396 139.784 16.6209 147.28 14.7931C152.268 13.5746 156.87 12.0065 160.942 10.1388C163.556 8.94026 165.968 7.62187 168.139 6.20361Z" stroke="white" stroke-width="3" stroke-miterlimit="10"/>
<path d="M199.707 14.9429C190.233 11.3173 179.61 8.36097 168.139 6.20361C154.342 3.61678 139.34 2.19852 123.624 2.19852C107.28 2.19852 91.6699 3.73663 77.4297 6.53321C66.0162 8.76048 55.4711 11.7968 46.103 15.4922C51.1778 19.3175 57.3042 22.7334 64.2796 25.6198C71.9207 28.8059 80.5749 31.3828 89.9429 33.1906H89.9526C100.083 35.1581 111.062 36.2268 122.533 36.2268C134.786 36.2268 146.46 34.9983 157.16 32.791C166.383 30.8734 174.854 28.2167 182.321 24.9606C188.998 22.0742 194.854 18.6983 199.707 14.9429Z" stroke="white" stroke-width="3" stroke-miterlimit="10"/>
</svg>
